<?xml version="1.0" encoding="UTF-8" standalone="no"?>
<!-- Generator: Adobe Illustrator 17.1.0, SVG Export Plug-In . SVG Version: 6.00 Build 0)  -->

<svg
   xmlns:dc="http://purl.org/dc/elements/1.1/"
   xmlns:cc="http://creativecommons.org/ns#"
   xmlns:rdf="http://www.w3.org/1999/02/22-rdf-syntax-ns#"
   xmlns:svg="http://www.w3.org/2000/svg"
   xmlns="http://www.w3.org/2000/svg"
   xmlns:sodipodi="http://sodipodi.sourceforge.net/DTD/sodipodi-0.dtd"
   xmlns:inkscape="http://www.inkscape.org/namespaces/inkscape"
   version="1.1"
   id="Capa_1"
   x="0px"
   y="0px"
   viewBox="0 0 334.966 334.966"
   style="enable-background:new 0 0 334.966 334.966;"
   xml:space="preserve"
   width="512px"
   height="512px"
   sodipodi:docname="Ave.svg"
   inkscape:version="0.92.1 r15371"><metadata
   id="metadata39"><rdf:RDF><cc:Work
       rdf:about=""><dc:format>image/svg+xml</dc:format><dc:type
         rdf:resource="http://purl.org/dc/dcmitype/StillImage" /><dc:title></dc:title></cc:Work></rdf:RDF></metadata><defs
   id="defs37" /><sodipodi:namedview
   pagecolor="#ffffff"
   bordercolor="#666666"
   borderopacity="1"
   objecttolerance="10"
   gridtolerance="10"
   guidetolerance="10"
   inkscape:pageopacity="0"
   inkscape:pageshadow="2"
   inkscape:window-width="701"
   inkscape:window-height="480"
   id="namedview35"
   showgrid="false"
   inkscape:zoom="0.4609375"
   inkscape:cx="256"
   inkscape:cy="256"
   inkscape:window-x="0"
   inkscape:window-y="0"
   inkscape:window-maximized="0"
   inkscape:current-layer="Capa_1" />
<path
   d="m 292.03644,280.184 c -5.86348,-1.863 -11.4024,-3.623 -16.07955,-5.347 -6.31216,-2.326 -7.78846,-3.394 -8.11506,-3.816 0.34288,-0.31 1.42746,-0.783 2.17019,-1.106 2.57818,-1.124 6.10868,-2.663 6.30708,-6.164 0.23808,-4.221 -3.81335,-12.339 -41.58359,-34.007 -29.26449,-16.789 -38.54858,-32.28 -49.2988,-50.218 -6.02119,-10.047 -12.24789,-20.437 -22.54535,-32.278 -2.86306,-3.292 -6.51362,-7 -10.74005,-11.293 -17.50395,-17.78 -43.95523,-44.65 -45.81205,-76.8 C 103.99204,18.353 73.599216,0 52.768248,0 L 52.254444,0.003 C 38.805986,0.19 29.594128,8.839 24.234279,16.064 c -2.489663,3.365 -7.073209,7.625 -10.120427,9.925 -3.712621,2.793 -6.6336773,6.137 -8.6777045,9.935 -0.9441798,1.734 -1.01947,3.419 -0.2116265,4.745 1.0235397,1.679 3.2832632,2.532 6.091384,2.208 2.20173,-0.25 4.217269,-0.372 6.161588,-0.372 9.146742,0 15.767192,2.658 19.675161,7.9 5.56944,7.469 5.546039,20.112 -0.06817,37.575 -15.961522,49.652 -20.59187,86.361 -14.156592,112.227 8.280904,33.301 19.71891,53.593 59.259493,72.092 3.787911,1.772 7.989918,3.315 12.523609,4.698 -2.862045,8.571 -6.020164,17.043 -8.852703,22.407 -0.212644,0.404 -0.338806,0.88 -0.461916,1.34 -0.05189,0.193 -0.125144,0.468 -0.197382,0.679 -0.619618,-0.347 -1.809,-1.235 -2.881376,-2.036 -1.759146,-1.314 -3.948666,-2.949 -6.270453,-4.328 -4.310873,-2.56 -7.6562,-3.752 -10.526384,-3.752 -2.20173,0 -3.817417,0.702 -5.108542,1.389 -0.32151,0.171 -1.076447,0.573 -0.887204,1.39 0.190261,0.821 0.962494,0.859 1.780512,0.898 2.096934,0.1 7.543264,0.363 12.766776,5.818 -2.35638,-0.067 -7.534107,-1.078 -15.802803,-3.091 -0.962493,-0.234 -1.914813,-0.345 -2.831522,-0.345 -6.845303,0 -10.233363,6.408 -11.509226,8.815 -0.16686,0.315 -0.284882,0.583 -0.355085,0.682 l -0.459881,0.627 0.558572,1.281 h 0.647089 c 0.311335,0 0.492438,-0.227 0.97572,-0.5 7.636868,-4.305 16.558757,-5.03 25.42367,-1.808 2.585303,0.939 4.059566,2.123 4.869445,3.05 -0.241133,0.181 -0.469038,0.372 -0.692874,0.566 -2.291264,-0.094 -4.116542,-0.139 -5.628451,-0.139 -2.426583,0 -3.746196,0.114 -5.274384,0.247 -1.471211,0.127 -3.138787,0.272 -6.227721,0.336 -2.211904,0.046 -4.295611,0.381 -6.025251,0.97 -4.9427,1.682 -7.285853,4.85 -7.394718,4.999 l -3.130648,4.486 -0.09157,0.16 c -0.366277,0.814 -0.398835,1.459 -0.09564,1.917 0.38459,0.581 1.145632,0.721 2.004347,0.187 6.609259,-4.108 11.981316,-6.024 16.907737,-6.024 3.173381,0 5.826852,0.795 8.392823,1.567 2.484577,0.748 5.054618,1.514 7.990936,1.514 1.141562,0 2.255653,-0.125 3.408407,-0.355 1.625862,-0.326 3.148962,-0.705 4.622208,-1.047 3.73704,-0.869 6.965361,-1.669 10.489757,-1.669 1.669611,0 3.354484,0.182 5.084123,0.547 1.385748,0.855 2.185458,1.729 2.596498,2.353 -2.856961,-0.129 -5.040377,-0.189 -6.803592,-0.189 -2.426583,0 -3.746196,0.114 -5.274384,0.247 -1.471211,0.127 -3.138787,0.272 -6.22772,0.336 -2.211905,0.046 -4.295612,0.381 -6.025251,0.97 -4.9427,1.682 -7.285854,4.85 -7.394719,4.999 l -3.130648,4.486 -0.09157,0.16 c -0.366277,0.814 -0.398835,1.459 -0.09564,1.917 0.38459,0.581 1.145632,0.721 2.004347,0.187 6.609259,-4.108 11.981316,-6.024 16.907737,-6.024 3.173381,0 5.826852,0.795 8.392823,1.567 2.484577,0.748 5.054618,1.514 7.990937,1.514 1.14157,0 2.25566,-0.125 3.40841,-0.355 1.62586,-0.326 3.14896,-0.705 4.62221,-1.047 3.73704,-0.869 6.96536,-1.669 10.48976,-1.669 5.99778,0 12.17259,2.251 20.0221,7.521 l 0.34999,0.019 h 0.31439 l 0.65014,0.192 0.27879,-0.363 c 0.32558,-0.657 0.32558,-0.657 -2.159,-3.779 -2.87019,-3.607 -10.49586,-13.188 -10.00648,-15.774 1.33182,-7.024 4.70258,-18.541 8.13642,-29.46 6.68253,0.91 13.62651,1.785 20.80655,2.685 16.47126,2.065 35.14119,4.407 54.40531,7.71 8.93919,1.534 18.3586,3.249 27.4677,4.907 29.37844,5.35 59.75804,10.881 77.41867,10.881 8.13745,0 13.2175,-1.161 15.5281,-3.549 1.04491,-1.08 1.53531,-2.398 1.45798,-3.918 -0.52703,-10.325 -23.58618,-17.652 -43.93081,-24.115 z m -180.18471,30.561 c -0.0519,0.193 -0.12515,0.468 -0.19739,0.679 -0.61962,-0.347 -1.809,-1.235 -2.88137,-2.036 -1.25348,-0.936 -2.73182,-2.034 -4.31393,-3.088 -0.16177,-0.506 -0.22689,-0.932 -0.16686,-1.251 1.11308,-5.869 3.64954,-14.877 6.45665,-24.05 3.7411,0.766 7.64806,1.471 11.6832,2.139 -3.17439,9.816 -6.86158,20.096 -10.11941,26.267 -0.21264,0.404 -0.3388,0.88 -0.46089,1.34 z"
   id="path2"
   inkscape:connector-curvature="0"
   style="fill:#f49719;stroke-width:1.00867987" />
<g
   id="g4">
</g>
<g
   id="g6">
</g>
<g
   id="g8">
</g>
<g
   id="g10">
</g>
<g
   id="g12">
</g>
<g
   id="g14">
</g>
<g
   id="g16">
</g>
<g
   id="g18">
</g>
<g
   id="g20">
</g>
<g
   id="g22">
</g>
<g
   id="g24">
</g>
<g
   id="g26">
</g>
<g
   id="g28">
</g>
<g
   id="g30">
</g>
<g
   id="g32">
</g>
</svg>