<?xml version="1.0" encoding="UTF-8" standalone="no"?>
<!-- Generator: Adobe Illustrator 18.0.0, SVG Export Plug-In . SVG Version: 6.00 Build 0)  -->

<svg
   xmlns:dc="http://purl.org/dc/elements/1.1/"
   xmlns:cc="http://creativecommons.org/ns#"
   xmlns:rdf="http://www.w3.org/1999/02/22-rdf-syntax-ns#"
   xmlns:svg="http://www.w3.org/2000/svg"
   xmlns="http://www.w3.org/2000/svg"
   xmlns:sodipodi="http://sodipodi.sourceforge.net/DTD/sodipodi-0.dtd"
   xmlns:inkscape="http://www.inkscape.org/namespaces/inkscape"
   version="1.1"
   id="Capa_1"
   x="0px"
   y="0px"
   viewBox="0 0 491.837 491.837"
   style="enable-background:new 0 0 491.837 491.837;"
   xml:space="preserve"
   width="512px"
   height="512px"
   sodipodi:docname="Gato.svg"
   inkscape:version="0.92.1 r15371"><metadata
   id="metadata38"><rdf:RDF><cc:Work
       rdf:about=""><dc:format>image/svg+xml</dc:format><dc:type
         rdf:resource="http://purl.org/dc/dcmitype/StillImage" /><dc:title></dc:title></cc:Work></rdf:RDF></metadata><defs
   id="defs36" /><sodipodi:namedview
   pagecolor="#ffffff"
   bordercolor="#666666"
   borderopacity="1"
   objecttolerance="10"
   gridtolerance="10"
   guidetolerance="10"
   inkscape:pageopacity="0"
   inkscape:pageshadow="2"
   inkscape:window-width="1366"
   inkscape:window-height="705"
   id="namedview34"
   showgrid="false"
   inkscape:zoom="0.4609375"
   inkscape:cx="153.8844"
   inkscape:cy="256"
   inkscape:window-x="-8"
   inkscape:window-y="-8"
   inkscape:window-maximized="1"
   inkscape:current-layer="Capa_1" />
<path
   id="XMLID_561_"
   d="m 489.23806,180.925 c -8.95809,-26.702 -36.55366,-43.952 -70.29008,-43.952 -29.39659,0 -53.03535,8.354 -70.24896,24.824 -27.14209,25.956 -37.33492,70.469 -31.96359,141.523 -0.75543,-0.691 -1.27822,-1.51 -2.12527,-2.125 -9.87328,-7.095 -24.03819,-7.767 -34.77263,-1.676 l -33.88326,19.277 C 213.3128,266.316 195.87597,207.704 195.74557,148.137 250.02623,131.995 300.08574,83.33 300.08574,83.33 c 0,0 -8.03819,-7.775 -21.00009,-18.094 L 304.89196,9.341 c 1.16426,-2.532 0.44879,-5.416 -1.81159,-7.339 -2.25802,-1.927 -5.62626,-2.526 -8.60679,-1.525 l -77.52351,25.94 C 199.64013,18.69 181.24229,13.27 163.34611,13.27 c -17.89384,0 -36.27523,5.42 -53.5793,13.147 L 32.243305,0.478 c -2.980543,-1 -6.34878,-0.401 -8.612677,1.525 -2.279171,1.923 -2.96997,4.807 -1.806889,7.339 l 25.80514,55.889 C 34.66933,75.556 26.626444,83.332 26.626444,83.332 c 0,0 50.085353,48.671 104.343696,64.815 -0.13275,59.902 -17.40041,118.06 -50.198139,170.659 L 46.89226,299.52 C 36.157839,293.411 21.992915,294.086 12.127868,301.196 2.2780932,308.297 -0.86927541,320.09 4.4350816,330.11 L 63.976637,442.587 h -25.93672 c -15.972988,0 -28.9254884,11.024 -28.9254884,24.627 0,13.6 12.9525004,24.624 28.9254884,24.624 H 108.7494 c 6.83399,0 13.25913,-2.165 18.39432,-5.786 11.37706,3.383 23.53067,5.287 36.22706,5.287 12.68933,0 24.8406,-1.904 36.2153,-5.287 5.14106,3.621 11.56503,5.786 18.40489,5.786 h 70.70244 c 15.97181,0 28.92431,-11.024 28.92431,-24.624 0,-13.603 -12.9525,-24.627 -28.92431,-24.627 h -0.33953 c 16.4206,-5.184 32.56394,-12.873 45.46475,-24.398 21.43359,-19.143 30.13556,-44.626 25.84273,-75.759 -11.60614,-84.256 -5.76489,-136.206 17.85859,-158.812 9.85095,-9.418 23.01257,-13.811 41.4292,-13.811 24.54807,0 31.61233,15.408 33.1913,20.137 2.73147,8.118 1.84683,19.75 -9.62304,25.819 -9.04031,4.786 -11.81056,14.909 -6.20192,22.604 5.63566,7.72 17.50496,10.077 26.58288,5.275 24.06404,-12.738 34.65043,-37.94 26.33969,-62.717 z M 305.98338,395.478 c -7.23225,6.486 -16.39005,11.222 -26.10825,14.758 l 40.00648,-75.573 c 0.47229,3.832 0.92343,7.629 1.46854,11.588 2.92064,21.227 -2.10882,37.324 -15.36677,49.227 z"
   inkscape:connector-curvature="0"
   style="fill:#f49719;stroke-width:1.08389568" />
<g
   id="g3">
</g>
<g
   id="g5">
</g>
<g
   id="g7">
</g>
<g
   id="g9">
</g>
<g
   id="g11">
</g>
<g
   id="g13">
</g>
<g
   id="g15">
</g>
<g
   id="g17">
</g>
<g
   id="g19">
</g>
<g
   id="g21">
</g>
<g
   id="g23">
</g>
<g
   id="g25">
</g>
<g
   id="g27">
</g>
<g
   id="g29">
</g>
<g
   id="g31">
</g>
</svg>