<?xml version="1.0" encoding="UTF-8" standalone="no"?>
<!-- Generator: Adobe Illustrator 16.0.0, SVG Export Plug-In . SVG Version: 6.00 Build 0)  -->

<svg
   xmlns:dc="http://purl.org/dc/elements/1.1/"
   xmlns:cc="http://creativecommons.org/ns#"
   xmlns:rdf="http://www.w3.org/1999/02/22-rdf-syntax-ns#"
   xmlns:svg="http://www.w3.org/2000/svg"
   xmlns="http://www.w3.org/2000/svg"
   xmlns:sodipodi="http://sodipodi.sourceforge.net/DTD/sodipodi-0.dtd"
   xmlns:inkscape="http://www.inkscape.org/namespaces/inkscape"
   version="1.1"
   id="Capa_1"
   x="0px"
   y="0px"
   width="63.445px"
   height="63.445px"
   viewBox="0 0 63.445 63.445"
   style="enable-background:new 0 0 63.445 63.445;"
   xml:space="preserve"
   sodipodi:docname="huella-.svg"
   inkscape:version="0.92.1 r15371"><metadata
   id="metadata51"><rdf:RDF><cc:Work
       rdf:about=""><dc:format>image/svg+xml</dc:format><dc:type
         rdf:resource="http://purl.org/dc/dcmitype/StillImage" /></cc:Work></rdf:RDF></metadata><defs
   id="defs49" /><sodipodi:namedview
   pagecolor="#ffffff"
   bordercolor="#666666"
   borderopacity="1"
   objecttolerance="10"
   gridtolerance="10"
   guidetolerance="10"
   inkscape:pageopacity="0"
   inkscape:pageshadow="2"
   inkscape:window-width="1366"
   inkscape:window-height="705"
   id="namedview47"
   showgrid="false"
   inkscape:zoom="3.7197573"
   inkscape:cx="-8.4682942"
   inkscape:cy="31.7225"
   inkscape:window-x="-8"
   inkscape:window-y="-8"
   inkscape:window-maximized="1"
   inkscape:current-layer="Capa_1" />
<g
   id="g14"
   transform="matrix(0.61440678,0,0,0.72102938,24.463962,20.812794)">
	<g
   id="g12">
		<path
   d="m 21.572,28.926 c 5.067,0 9.19,-5.533 9.19,-12.334 0,-6.801 -4.123,-12.334 -9.19,-12.334 -5.067,0 -9.19,5.533 -9.19,12.334 0,6.801 4.122,12.334 9.19,12.334 z m 0,-21.668 c 3.355,0 6.19,4.275 6.19,9.334 0,5.059 -2.834,9.334 -6.19,9.334 -3.356,0 -6.19,-4.275 -6.19,-9.334 0,-5.059 2.834,-9.334 6.19,-9.334 z"
   id="path2"
   inkscape:connector-curvature="0" />
		<path
   d="M 48.83,40.922 C 48.641,40.666 48.46,40.424 48.364,40.215 46.31,35.817 40.675,30.631 31.551,30.502 L 31.2,30.5 c -8.985,0 -14.576,4.912 -16.813,9.51 -0.077,0.156 -0.247,0.361 -0.427,0.576 -0.212,0.254 -0.423,0.512 -0.604,0.793 -1.89,2.941 -2.853,6.25 -2.711,9.318 0.15,3.26 1.512,5.877 3.835,7.369 0.937,0.604 1.95,0.907 3.011,0.907 2.191,0 4.196,-1.233 6.519,-2.664 1.476,-0.907 3.002,-1.848 4.698,-2.551 0.191,-0.063 0.968,-0.158 2.241,-0.158 1.515,0 2.6,0.134 2.833,0.216 1.653,0.729 3.106,1.688 4.513,2.612 2.154,1.418 4.188,2.759 6.395,2.759 0.947,0 1.867,-0.248 2.732,-0.742 C 52.2,55.73 53.11,48.283 49.452,41.842 49.268,41.52 49.048,41.219 48.83,40.922 Z m -2.891,14.916 c -0.422,0.238 -0.818,0.35 -1.25,0.35 -1.308,0 -2.9,-1.049 -4.746,-2.264 -1.438,-0.947 -3.066,-2.02 -4.949,-2.852 -0.926,-0.41 -2.934,-0.472 -4.046,-0.472 -1.629,0 -2.76,0.128 -3.362,0.375 -1.943,0.808 -3.646,1.854 -5.149,2.779 -1.934,1.188 -3.604,2.219 -4.946,2.219 -0.49,0 -0.931,-0.137 -1.389,-0.432 -1.483,-0.953 -2.356,-2.724 -2.461,-4.984 -0.113,-2.45 0.682,-5.135 2.238,-7.557 0.113,-0.177 0.25,-0.334 0.383,-0.492 0.274,-0.328 0.586,-0.701 0.823,-1.188 1.84,-3.781 6.514,-7.82 14.115,-7.82 l 0.308,0.002 c 7.736,0.109 12.451,4.369 14.137,7.982 0.225,0.479 0.517,0.875 0.773,1.223 0.146,0.199 0.301,0.4 0.426,0.619 2.84,5 2.435,10.613 -0.905,12.512 z"
   id="path4"
   inkscape:connector-curvature="0" />
		<path
   d="m 41.111,28.926 c 5.068,0 9.191,-5.533 9.191,-12.334 0,-6.801 -4.122,-12.334 -9.191,-12.334 -5.066,0 -9.189,5.533 -9.189,12.334 0,6.801 4.122,12.334 9.189,12.334 z m 0,-21.668 c 3.355,0 6.191,4.275 6.191,9.334 0,5.059 -2.834,9.334 -6.191,9.334 -3.355,0 -6.189,-4.275 -6.189,-9.334 0,-5.059 2.834,-9.334 6.189,-9.334 z"
   id="path6"
   inkscape:connector-curvature="0" />
		<path
   d="m 56.205,22.592 c -4.061,0 -7.241,4.213 -7.241,9.59 0,5.375 3.181,9.588 7.241,9.588 4.06,0 7.24,-4.213 7.24,-9.588 0,-5.377 -3.179,-9.59 -7.24,-9.59 z m 0,16.178 c -2.299,0 -4.241,-3.018 -4.241,-6.588 0,-3.572 1.942,-6.59 4.241,-6.59 2.299,0 4.24,3.018 4.24,6.59 0,3.57 -1.942,6.588 -4.24,6.588 z"
   id="path8"
   inkscape:connector-curvature="0" />
		<path
   d="m 14.482,32.182 c 0,-5.377 -3.181,-9.59 -7.241,-9.59 -4.06,0 -7.241,4.213 -7.241,9.59 0,5.375 3.181,9.588 7.241,9.588 4.06,0 7.241,-4.213 7.241,-9.588 z M 7.241,38.77 C 4.942,38.77 3,35.752 3,32.182 c 0,-3.572 1.942,-6.59 4.241,-6.59 2.299,0 4.241,3.018 4.241,6.59 0,3.57 -1.942,6.588 -4.241,6.588 z"
   id="path10"
   inkscape:connector-curvature="0" />
	</g>
</g>
<g
   id="g16">
</g>
<g
   id="g18">
</g>
<g
   id="g20">
</g>
<g
   id="g22">
</g>
<g
   id="g24">
</g>
<g
   id="g26">
</g>
<g
   id="g28">
</g>
<g
   id="g30">
</g>
<g
   id="g32">
</g>
<g
   id="g34">
</g>
<g
   id="g36">
</g>
<g
   id="g38">
</g>
<g
   id="g40">
</g>
<g
   id="g42">
</g>
<g
   id="g44">
</g>
</svg>