<?xml version="1.0" encoding="UTF-8" standalone="no"?>
<!-- Generator: Adobe Illustrator 18.1.1, SVG Export Plug-In . SVG Version: 6.00 Build 0)  -->

<svg
   xmlns:dc="http://purl.org/dc/elements/1.1/"
   xmlns:cc="http://creativecommons.org/ns#"
   xmlns:rdf="http://www.w3.org/1999/02/22-rdf-syntax-ns#"
   xmlns:svg="http://www.w3.org/2000/svg"
   xmlns="http://www.w3.org/2000/svg"
   xmlns:sodipodi="http://sodipodi.sourceforge.net/DTD/sodipodi-0.dtd"
   xmlns:inkscape="http://www.inkscape.org/namespaces/inkscape"
   version="1.1"
   id="Capa_1"
   x="0px"
   y="0px"
   viewBox="0 0 19.787 19.787"
   style="enable-background:new 0 0 19.787 19.787;"
   xml:space="preserve"
   width="512px"
   height="512px"
   sodipodi:docname="Pez.svg"
   inkscape:version="0.92.1 r15371"><metadata
   id="metadata47"><rdf:RDF><cc:Work
       rdf:about=""><dc:format>image/svg+xml</dc:format><dc:type
         rdf:resource="http://purl.org/dc/dcmitype/StillImage" /><dc:title></dc:title></cc:Work></rdf:RDF></metadata><defs
   id="defs45" /><sodipodi:namedview
   pagecolor="#ffffff"
   bordercolor="#666666"
   borderopacity="1"
   objecttolerance="10"
   gridtolerance="10"
   guidetolerance="10"
   inkscape:pageopacity="0"
   inkscape:pageshadow="2"
   inkscape:window-width="701"
   inkscape:window-height="480"
   id="namedview43"
   showgrid="false"
   inkscape:zoom="0.4609375"
   inkscape:cx="256"
   inkscape:cy="256"
   inkscape:window-x="0"
   inkscape:window-y="0"
   inkscape:window-maximized="0"
   inkscape:current-layer="Capa_1" />
<g
   id="g10">
	<g
   id="g8">
		<path
   d="M5.594,5.087C2.216,6.582,0,9.759,0,9.759c0.018,0.021,1.679,1.68,3.054,1.179l0.046,0.34    c-0.173,0.063-0.35,0.091-0.53,0.091c-0.95,0-1.942-0.545-2.455-1.023c0.726,0.907,2.688,3.14,5.238,4.352    C7.256,11.453,5.891,6.137,5.594,5.087z M3.513,9.894c-0.568,0-1.03-0.462-1.03-1.03c0-0.569,0.462-1.03,1.03-1.03    c0.569,0,1.031,0.46,1.031,1.03C4.544,9.432,4.082,9.894,3.513,9.894z"
   fill="#f49719"
   id="path2" />
		<path
   d="M16.794,8.713c-0.991-1.092-2.641-2.648-4.639-3.566c2.031-0.897,6.036,0.721,2.377-1.539    c-3.515-2.171-6.364,0.217-7.116,0.955C7,4.656,6.593,4.78,6.2,4.936c0.292,0.99,1.76,6.456-0.245,9.922    c0.775,0.33,1.601,0.551,2.457,0.619c1.725,1.603,5.36,2.245,4.253,0.745c-0.267-0.36-0.566-0.823-0.871-1.32    c2.343-0.963,4.248-2.854,5.252-4.003l2.741,1.564V7.428L16.794,8.713z"
   fill="#f49719"
   id="path4" />
		<circle
   cx="3.514"
   cy="8.836"
   r="0.564"
   fill="#f49719"
   id="circle6" />
	</g>
</g>
<g
   id="g12">
</g>
<g
   id="g14">
</g>
<g
   id="g16">
</g>
<g
   id="g18">
</g>
<g
   id="g20">
</g>
<g
   id="g22">
</g>
<g
   id="g24">
</g>
<g
   id="g26">
</g>
<g
   id="g28">
</g>
<g
   id="g30">
</g>
<g
   id="g32">
</g>
<g
   id="g34">
</g>
<g
   id="g36">
</g>
<g
   id="g38">
</g>
<g
   id="g40">
</g>
</svg>