<?xml version="1.0" encoding="UTF-8" standalone="no"?>
<!-- Generator: Adobe Illustrator 16.0.0, SVG Export Plug-In . SVG Version: 6.00 Build 0)  -->

<svg
   xmlns:dc="http://purl.org/dc/elements/1.1/"
   xmlns:cc="http://creativecommons.org/ns#"
   xmlns:rdf="http://www.w3.org/1999/02/22-rdf-syntax-ns#"
   xmlns:svg="http://www.w3.org/2000/svg"
   xmlns="http://www.w3.org/2000/svg"
   xmlns:sodipodi="http://sodipodi.sourceforge.net/DTD/sodipodi-0.dtd"
   xmlns:inkscape="http://www.inkscape.org/namespaces/inkscape"
   version="1.1"
   id="Capa_1"
   x="0px"
   y="0px"
   width="512px"
   height="512px"
   viewBox="0 0 480.034 480.034"
   style="enable-background:new 0 0 480.034 480.034;"
   xml:space="preserve"
   sodipodi:docname="toucan-tropical-bird.svg"
   inkscape:version="0.92.1 r15371"><metadata
   id="metadata45"><rdf:RDF><cc:Work
       rdf:about=""><dc:format>image/svg+xml</dc:format><dc:type
         rdf:resource="http://purl.org/dc/dcmitype/StillImage" /><dc:title></dc:title></cc:Work></rdf:RDF></metadata><defs
   id="defs43" /><sodipodi:namedview
   pagecolor="#ffffff"
   bordercolor="#666666"
   borderopacity="1"
   objecttolerance="10"
   gridtolerance="10"
   guidetolerance="10"
   inkscape:pageopacity="0"
   inkscape:pageshadow="2"
   inkscape:window-width="1366"
   inkscape:window-height="705"
   id="namedview41"
   showgrid="false"
   inkscape:zoom="0.4609375"
   inkscape:cx="256"
   inkscape:cy="256"
   inkscape:window-x="-8"
   inkscape:window-y="-8"
   inkscape:window-maximized="1"
   inkscape:current-layer="Capa_1" />

<g
   id="g10">
</g>
<g
   id="g12">
</g>
<g
   id="g14">
</g>
<g
   id="g16">
</g>
<g
   id="g18">
</g>
<g
   id="g20">
</g>
<g
   id="g22">
</g>
<g
   id="g24">
</g>
<g
   id="g26">
</g>
<g
   id="g28">
</g>
<g
   id="g30">
</g>
<g
   id="g32">
</g>
<g
   id="g34">
</g>
<g
   id="g36">
</g>
<g
   id="g38">
</g>
<g
   transform="matrix(1.1927155,0,0,0.99152542,-46.25505,2.0342318)"
   id="g8"><path
     style="fill:#f49719"
     inkscape:connector-curvature="0"
     d="m 210.979,458.3 -25.4,-72.1 c -10.9,4.2 -22.8,6.5 -35.3,6.5 h -14.5 c -13.1,0 -25.6,-2.5 -36.8,-7.101 l -25.6,72.7 c 0,0 19.3,39.5 68.9,12 49.4,27.401 68.7,-11.999 68.7,-11.999 z"
     id="path2" /><path
     style="fill:#f49719"
     inkscape:connector-curvature="0"
     d="m 244.88,170.7 c 0,-21.3 -10.5,-40.5 -27.201,-53.5 -1.7,0.2 -3.4,0.4 -5.1,0.7 -18.3,2.5 -37.5,5.9 -57.3,10.4 -0.9,0.2 -1.7,0.3 -2.6,0.3 -4,0 -7.7,-2 -10,-5.4 l -15.3,-23.4 -3.9,-6 -1.5,-2.3 c -0.7,-1.1 -1.3,-2.3 -1.6,-3.6 -0.6,-2.3 -0.5,-4.8 0.4,-7 1.3,-3.5 4.2,-6.3 7.8,-7.3 11.4,-3.3 19.3,-9.3 24,-18.2 10.9,-20.7 1.4,-50.2 1.3,-50.5 -0.4,-1.3 -0.6,-2.7 -0.6,-4 -3.6,-0.6 -7.3,-0.9 -11.1,-0.9 -39,0 -70.5,31.6 -70.5,70.5 v 29.2 6.9 7 c -19.5,12.9 -32.2,33.7 -32.2,57.1 l 17.2,139.1 c 0,28.7 19,53.4 46.3,64.601 10,4.1 21.1,6.399 32.9,6.399 h 14.5 c 11.1,0 21.7,-2.1 31.4,-5.8 28.1,-10.9 47.8,-36 47.8,-65.2 z M 123.279,21.4 c 15.7,0 15.7,24.4 0,24.4 -15.699,0 -15.8,-24.4 0,-24.4 z"
     id="path4" /><path
     style="fill:#f49719"
     inkscape:connector-curvature="0"
     d="m 439.38,159.9 c 2.699,0 0.199,-11.1 -2,-43.2 C 429.98,8.2 231.08,0.9 177.98,0.9 c -8.2,0 -12.9,0.2 -12.9,0.2 0,0 0.4,1.1 0.9,3 3.6,13.3 14.6,66.6 -34.1,80.8 l 1.9,2.9 3.9,6 3.9,6 11.1,16.9 c 17.3,-3.9 33.5,-6.9 48.8,-9.2 3.4,-0.5 6.8,-1 10.1,-1.4 0.3,0 0.7,-0.1 1,-0.1 2.8,-0.4 5.5,-0.7 8.2,-1 19.899,-2.3 38,-3.4 54.5,-3.4 124.799,-0.1 157.899,58.3 164.1,58.3 z"
     id="path6" /></g></svg>